<svg width="24" height="24" viewBox="0 0 24 24" fill="none" xmlns="http://www.w3.org/2000/svg">
<path fill-rule="evenodd" clip-rule="evenodd" d="M18 4H11C10.4477 4 10 4.44772 10 5V7H13C14.6569 7 16 8.34315 16 10V15H18C18.5523 15 19 14.5523 19 14V5C19 4.44772 18.5523 4 18 4ZM16 17V19C16 20.6569 14.6569 22 13 22H6C4.34315 22 3 20.6569 3 19V10C3 8.34315 4.34315 7 6 7H8V5C8 3.34315 9.34315 2 11 2H18C19.6569 2 21 3.34315 21 5V14C21 15.6569 19.6569 17 18 17H16ZM6 9H13C13.5523 9 14 9.44771 14 10V19C14 19.5523 13.5523 20 13 20H6C5.44772 20 5 19.5523 5 19V10C5 9.44772 5.44772 9 6 9Z" fill="#0F1621"/>
</svg>
